<svg viewBox="0 0 117 25" xmlns="http://www.w3.org/2000/svg" xmlns:xlink="http://www.w3.org/1999/xlink"
     overflow="hidden">
    <g>
        <path d="M5.68019 0C6.8272 0 7.9074 0.145859 8.92089 0.437791 9.93438 0.729616 10.8182 1.20794 11.5725 1.87266 12.3267 2.53738 12.9198 3.40083 13.3519 4.4628 13.784 5.52478 14 6.81783 14 8.34196 14 9.88226 13.7918 11.1955 13.3755 12.2819 12.9591 13.3682 12.3777 14.264 11.6313 14.9692 10.885 15.6746 10.009 16.1893 9.00337 16.5136 7.99782 16.8379 6.90577 17 5.72731 17 5.08303 17 4.47421 16.9473 3.90065 16.8419 3.3272 16.7366 2.81654 16.5987 2.36866 16.4285 1.92089 16.2583 1.55168 16.0677 1.26094 15.857 0.970292 15.6462 0.785636 15.4354 0.707073 15.2246 0.487053 14.6571 0.314255 13.8424 0.188573 12.7804 0.0628922 11.7184 0 10.4497 0 8.97423 0 8.22844 0.0156715 7.49478 0.0471176 6.77325 0.0785636 6.05172 0.117845 5.38296 0.164963 4.76676 0.212081 4.15066 0.267137 3.61563 0.329926 3.16167 0.392818 2.70771 0.45571 2.38343 0.518499 2.18885 0.581392 1.99426 0.640263 1.82 0.695319 1.66594 0.750272 1.51189 0.817082 1.38221 0.895646 1.27677 0.97421 1.17145 1.07628 1.0741 1.20206 0.984949 1.32775 0.895795 1.49271 0.810684 1.69695 0.729616 2.10555 0.567479 2.62796 0.405342 3.26431 0.243205 3.90065 0.0810684 4.70598 0 5.68019 0ZM6.52862 5.39913C6.26148 5.39913 6.04548 5.46807 5.88052 5.60585 5.71556 5.74373 5.63297 5.99906 5.63297 6.37195 5.63297 6.92326 5.63297 7.47042 5.63297 8.01364 5.63297 8.55676 5.63699 9.05125 5.64483 9.49713 5.65266 9.94301 5.6605 10.3199 5.66834 10.628 5.67627 10.9361 5.68803 11.1388 5.7037 11.2361 5.73515 11.4954 5.80587 11.6698 5.91588 11.759 6.02579 11.8481 6.15941 11.8927 6.31654 11.8927 6.52078 11.8927 6.73688 11.7955 6.96464 11.6009 7.19249 11.4063 7.40065 11.1429 7.58923 10.8105 7.7778 10.478 7.93101 10.093 8.04886 9.65522 8.1667 9.21743 8.22557 8.75539 8.22557 8.26898 8.22557 7.78257 8.17062 7.36095 8.06061 7.00433 7.9506 6.64761 7.81316 6.34759 7.6482 6.10439 7.48324 5.86118 7.3025 5.68287 7.10609 5.56936 6.90968 5.45584 6.71719 5.39913 6.52862 5.39913Z"
              fill="#FFFFFF" fill-rule="evenodd"/>
        <path d="M98.7627 1C99.4221 1 99.9598 1.21542 100.376 1.64635 100.792 2.07718 101 2.60969 101 3.24389 101 3.68293 100.921 4.07311 100.764 4.41464 100.607 4.75606 100.435 5.04872 100.246 5.29263 100.058 5.53653 99.8852 5.74384 99.7282 5.91465 99.5712 6.08536 99.4927 6.22759 99.4927 6.34143 99.634 6.55279 99.7675 6.8048 99.8931 7.09757 100.003 7.34147 100.101 7.63819 100.187 7.98783 100.274 8.33736 100.317 8.72359 100.317 9.14631 100.317 10.0406 100.144 10.8211 99.7989 11.4878 99.4534 12.1544 98.9825 12.7073 98.3858 13.1463 97.7892 13.5853 97.0866 13.9105 96.278 14.1219 95.4695 14.3334 94.602 14.439 93.6757 14.439 93.4559 14.439 93.2714 14.5243 93.1222 14.6952 92.9731 14.8659 92.8985 15.0568 92.8985 15.2683 92.8985 15.7236 93.1968 15.9512 93.7934 15.9512 94.2331 15.9512 94.7983 15.8699 95.4891 15.7073 96.1799 15.5447 96.9493 15.4634 97.7971 15.4634 98.2681 15.4634 98.692 15.5488 99.0689 15.7195 99.4456 15.8902 99.7596 16.122 100.011 16.4146 100.262 16.7073 100.454 17.0487 100.588 17.439 100.721 17.8293 100.788 18.2358 100.788 18.6585 100.788 19.4715 100.6 20.2601 100.223 21.0244 99.8459 21.7886 99.3083 22.4635 98.6096 23.0488 97.9109 23.6341 97.071 24.1057 96.0897 24.4634 95.1084 24.8212 94.0211 25 92.8279 25 92.0271 25 91.3245 24.9187 90.7201 24.7561 90.1157 24.5935 89.6132 24.3658 89.2129 24.0731 88.8124 23.7805 88.5103 23.435 88.3061 23.0366 88.102 22.6382 88 22.2113 88 21.7561 88 21.317 88.0902 20.9228 88.2708 20.5732 88.4513 20.2236 88.6476 19.9187 88.8596 19.6586 89.0715 19.3983 89.2678 19.1789 89.4484 18.9999 89.6289 18.8211 89.7191 18.683 89.7191 18.5853 89.7191 18.4878 89.6367 18.374 89.4719 18.2439 89.307 18.1139 89.1264 17.9513 88.9302 17.7561 88.7339 17.561 88.5534 17.3252 88.3885 17.0487 88.2237 16.7724 88.1412 16.4472 88.1412 16.0731 88.1412 15.5853 88.2668 15.1788 88.5181 14.8536 88.7693 14.5284 89.044 14.2642 89.3424 14.061 89.6406 13.8577 89.9194 13.7154 90.1784 13.6341 90.4375 13.5528 90.567 13.5121 90.567 13.5121 90.2844 13.3495 89.9939 13.1301 89.6956 12.8536 89.3973 12.5772 89.1264 12.2561 88.8831 11.8903 88.6398 11.5244 88.4435 11.1097 88.2943 10.6463 88.1452 10.183 88.0706 9.67477 88.0706 9.12188 88.0706 8.39017 88.208 7.69911 88.4828 7.04871 88.7575 6.3983 89.1383 5.82919 89.625 5.34139 90.1117 4.85358 90.6926 4.47151 91.3677 4.19506 92.0429 3.91862 92.7729 3.78045 93.5579 3.78045 94.1232 3.78045 94.602 3.8211 94.9946 3.9024 95.3871 3.9837 95.7128 4.07717 95.9719 4.1829 96.2309 4.28863 96.4429 4.3821 96.6078 4.4634 96.7726 4.5447 96.91 4.58535 97.02 4.58535 97.2083 4.58535 97.3026 4.52027 97.3026 4.39021 97.3026 4.34145 97.2672 4.26826 97.1965 4.17074 97.1259 4.07311 97.0513 3.95927 96.9728 3.82921 96.8943 3.69915 96.8197 3.54871 96.7491 3.378 96.6784 3.20729 96.6431 3.00809 96.6431 2.78041 96.6431 2.2926 96.8276 1.87393 97.1965 1.5244 97.5655 1.17476 98.0876 1 98.7627 1ZM94.5235 7.48775C94.2252 7.48775 93.9662 7.63008 93.7463 7.91464 93.5266 8.19919 93.4167 8.53656 93.4167 8.92684 93.4167 9.34956 93.4991 9.68288 93.6639 9.92678 93.8288 10.1707 94.0682 10.2926 94.3822 10.2926 94.6962 10.2926 94.9553 10.1504 95.1594 9.86586 95.3635 9.58131 95.4656 9.23572 95.4656 8.82922 95.4656 7.93491 95.1516 7.48775 94.5235 7.48775ZM93.7463 19.5122C93.5737 19.5122 93.4402 19.565 93.346 19.6707 93.2517 19.7765 93.2047 19.8943 93.2047 20.0244 93.2047 20.2195 93.2636 20.3943 93.3813 20.5488 93.4991 20.7032 93.6522 20.8334 93.8405 20.939 94.0289 21.0447 94.241 21.126 94.4765 21.1829 94.712 21.2399 94.9475 21.2683 95.183 21.2683 95.7167 21.2683 95.9837 21.0407 95.9837 20.5853 95.9837 20.4227 95.9208 20.2764 95.7952 20.1464 95.6697 20.0162 95.5009 19.9025 95.2889 19.8048 95.077 19.7073 94.8375 19.6341 94.5706 19.5854 94.3037 19.5366 94.0289 19.5122 93.7463 19.5122Z"
              fill="#FFFFFF" fill-rule="evenodd"/>
        <path d="M48.0588 4C48.6863 4 49.2862 4.08924 49.8588 4.26773 50.4313 4.44632 50.9372 4.71405 51.3764 5.07112 51.8157 5.4282 52.1686 5.86238 52.4352 6.37355 52.7019 6.88483 52.8353 7.46501 52.8353 8.1142 52.8353 8.77958 52.8157 9.34762 52.7764 9.81833 52.7372 10.289 52.6902 10.7069 52.6353 11.0721 52.5804 11.4373 52.5333 11.7538 52.4941 12.0215 52.4549 12.2893 52.4352 12.5449 52.4352 12.7884 52.4352 13.2104 52.4627 13.535 52.5177 13.7621 52.5725 13.9894 52.6353 14.1719 52.7058 14.3099 52.7764 14.4479 52.8431 14.5574 52.9058 14.6386 52.9686 14.7197 53 14.8252 53 14.9551 53 15.1336 52.8902 15.3405 52.6705 15.5758 52.451 15.8112 52.1726 16.0343 51.8353 16.2453 51.4981 16.4563 51.1333 16.6348 50.7411 16.7809 50.349 16.9269 49.9882 17 49.6588 17 49.3922 17 49.1686 16.9513 48.9882 16.8539 48.8078 16.7566 48.6588 16.647 48.5411 16.5252 48.4235 16.4035 48.3255 16.29 48.2471 16.1845 48.1686 16.0789 48.098 16.0262 48.0353 16.0262 47.9568 16.0262 47.8235 16.0749 47.6353 16.1723 47.447 16.2697 47.2039 16.3752 46.9058 16.4887 46.6078 16.6023 46.2705 16.7079 45.8941 16.8052 45.5176 16.9027 45.1176 16.9513 44.6941 16.9513 43.4706 16.9513 42.549 16.647 41.9294 16.0384 41.3098 15.4297 41 14.6873 41 13.8108 41 13.0156 41.1686 12.3501 41.5059 11.8146 41.8431 11.279 42.2705 10.8367 42.7882 10.4879 43.3059 10.1389 43.8588 9.86295 44.4471 9.66008 45.0353 9.4572 45.5882 9.27872 46.1059 9.12452 46.6235 8.97031 47.0509 8.82016 47.3882 8.67415 47.7254 8.52804 47.8941 8.34146 47.8941 8.1142 47.8941 7.98439 47.8353 7.86671 47.7176 7.76117 47.6 7.65574 47.4156 7.60292 47.1647 7.60292 46.6471 7.60292 46.1647 7.69227 45.7176 7.87076 45.2706 8.04924 44.8627 8.24807 44.4941 8.46723 44.1255 8.68629 43.8039 8.88512 43.5294 9.0636 43.2549 9.24219 43.0235 9.33144 42.8353 9.33144 42.5216 9.33144 42.3098 9.157 42.1999 8.80801 42.0902 8.45914 42.0353 8.08172 42.0353 7.67598 42.0353 7.40005 42.051 7.14042 42.0823 6.89697 42.1137 6.65352 42.1686 6.46684 42.2471 6.33702 42.3882 6.02872 42.6274 5.73245 42.9647 5.44843 43.302 5.16441 43.7215 4.91692 44.2235 4.70595 44.7255 4.49499 45.302 4.3246 45.9529 4.19467 46.6039 4.06486 47.3059 4 48.0588 4ZM47.6588 11.4981C47.4392 11.4981 47.1961 11.5549 46.9294 11.6686 46.6627 11.7821 46.4157 11.9242 46.1882 12.0945 45.9607 12.2649 45.7686 12.4476 45.6117 12.6424 45.4548 12.837 45.3764 13.0156 45.3764 13.1779 45.3764 13.6323 45.6196 13.8596 46.1059 13.8596 46.2627 13.8596 46.451 13.7946 46.6705 13.6648 46.8902 13.535 47.098 13.3767 47.2941 13.1901 47.4901 13.0035 47.6548 12.8087 47.7882 12.6058 47.9215 12.403 47.9882 12.2203 47.9882 12.058 47.9882 11.8957 47.9646 11.7619 47.9176 11.6563 47.8706 11.5509 47.7843 11.4981 47.6588 11.4981Z"
              fill="#FFFFFF" fill-rule="evenodd"/>
        <path d="M109.059 4C109.686 4 110.286 4.08924 110.859 4.26773 111.431 4.44632 111.937 4.71405 112.377 5.07112 112.816 5.4282 113.169 5.86238 113.435 6.37355 113.702 6.88483 113.835 7.46501 113.835 8.1142 113.835 8.77958 113.816 9.34762 113.776 9.81833 113.737 10.289 113.69 10.7069 113.635 11.0721 113.58 11.4373 113.533 11.7538 113.494 12.0215 113.455 12.2893 113.435 12.5449 113.435 12.7884 113.435 13.2104 113.463 13.535 113.518 13.7621 113.573 13.9894 113.635 14.1719 113.706 14.3099 113.776 14.4479 113.843 14.5574 113.906 14.6386 113.969 14.7197 114 14.8252 114 14.9551 114 15.1336 113.89 15.3405 113.671 15.5758 113.451 15.8112 113.173 16.0343 112.835 16.2453 112.498 16.4563 112.133 16.6348 111.741 16.7809 111.349 16.9269 110.988 17 110.659 17 110.392 17 110.169 16.9513 109.988 16.8539 109.808 16.7566 109.659 16.647 109.541 16.5252 109.424 16.4035 109.326 16.29 109.247 16.1845 109.169 16.0789 109.098 16.0262 109.035 16.0262 108.957 16.0262 108.824 16.0749 108.635 16.1723 108.447 16.2697 108.204 16.3752 107.906 16.4887 107.608 16.6023 107.271 16.7079 106.894 16.8052 106.518 16.9027 106.118 16.9513 105.694 16.9513 104.471 16.9513 103.549 16.647 102.929 16.0384 102.31 15.4297 102 14.6873 102 13.8108 102 13.0156 102.169 12.3501 102.506 11.8146 102.843 11.279 103.271 10.8367 103.788 10.4879 104.306 10.1389 104.859 9.86295 105.447 9.66008 106.035 9.4572 106.588 9.27872 107.106 9.12452 107.623 8.97031 108.051 8.82016 108.388 8.67415 108.725 8.52804 108.894 8.34146 108.894 8.1142 108.894 7.98439 108.835 7.86671 108.718 7.76117 108.6 7.65574 108.416 7.60292 108.165 7.60292 107.647 7.60292 107.165 7.69227 106.718 7.87076 106.271 8.04924 105.863 8.24807 105.494 8.46723 105.126 8.68629 104.804 8.88512 104.529 9.0636 104.255 9.24219 104.024 9.33144 103.835 9.33144 103.522 9.33144 103.31 9.157 103.2 8.80801 103.09 8.45914 103.035 8.08172 103.035 7.67598 103.035 7.40005 103.051 7.14042 103.082 6.89697 103.114 6.65352 103.169 6.46684 103.247 6.33702 103.388 6.02872 103.627 5.73245 103.965 5.44843 104.302 5.16441 104.722 4.91692 105.224 4.70595 105.725 4.49499 106.302 4.3246 106.953 4.19467 107.604 4.06486 108.306 4 109.059 4ZM108.659 11.4981C108.439 11.4981 108.196 11.5549 107.929 11.6686 107.663 11.7821 107.416 11.9242 107.188 12.0945 106.961 12.2649 106.769 12.4476 106.612 12.6424 106.455 12.837 106.376 13.0156 106.376 13.1779 106.376 13.6323 106.62 13.8596 107.106 13.8596 107.263 13.8596 107.451 13.7946 107.671 13.6648 107.89 13.535 108.098 13.3767 108.294 13.1901 108.49 13.0035 108.655 12.8087 108.788 12.6058 108.922 12.403 108.988 12.2203 108.988 12.058 108.988 11.8957 108.965 11.7619 108.918 11.6563 108.871 11.5509 108.784 11.4981 108.659 11.4981Z"
              fill="#FFFFFF" fill-rule="evenodd"/>
        <path d="M25.053 4C25.4774 4 25.8703 4.10018 26.2318 4.30042 26.5933 4.50067 26.9037 4.74895 27.1631 5.04527 27.4224 5.3417 27.6268 5.66609 27.776 6.01854 27.9253 6.37089 28 6.69128 28 6.97972 28 7.33207 27.8978 7.68452 27.6935 8.03698 27.4892 8.38943 27.2141 8.70583 26.8683 8.98617 26.5225 9.26652 26.1336 9.49472 25.7014 9.671 25.2692 9.84718 24.833 9.93526 24.3929 9.93526 23.8586 9.93526 23.5914 9.69497 23.5914 9.21438 23.5914 8.84595 23.5363 8.56161 23.4264 8.36136 23.3163 8.16112 23.1434 8.06105 22.9076 8.06105 22.5147 8.06105 22.3182 8.32531 22.3182 8.85394 22.3182 9.35061 22.3457 9.8312 22.4008 10.2957 22.4558 10.7603 22.5187 11.2329 22.5893 11.7135 22.6601 12.1941 22.723 12.6907 22.778 13.2033 22.833 13.716 22.8605 14.2687 22.8605 14.8613 22.8605 15.5342 22.6915 16.0588 22.3536 16.4353 22.0157 16.8117 21.5403 17 20.9273 17 20.4243 17 19.9254 16.952 19.4302 16.8558 18.9351 16.7597 18.4911 16.6276 18.0982 16.4593 17.7053 16.2911 17.387 16.0948 17.1434 15.8706 16.8998 15.6463 16.7779 15.406 16.7779 15.1497 16.7779 14.7652 16.8133 14.3287 16.884 13.8401 16.9548 13.3515 16.9902 12.8989 16.9902 12.4824 16.9902 11.2969 16.9391 10.3799 16.8369 9.73102 16.7347 9.08225 16.6207 8.58169 16.495 8.22923 16.3693 7.87678 16.2554 7.60842 16.1533 7.42426 16.0511 7.23999 16 7.01977 16 6.76339 16 6.47506 16.1846 6.18273 16.554 5.8863 16.9233 5.58998 17.3556 5.32162 17.8507 5.08133 18.3457 4.84103 18.8448 4.64878 19.3477 4.50466 19.8507 4.36044 20.2357 4.28833 20.5029 4.28833 20.7387 4.28833 20.9273 4.34047 21.0688 4.44454 21.2102 4.54871 21.332 4.66486 21.4342 4.79299 21.5364 4.92113 21.6228 5.03728 21.6935 5.14145 21.7642 5.24552 21.8467 5.29766 21.9411 5.29766 22.0196 5.29766 22.1532 5.22954 22.3418 5.09342 22.5305 4.95719 22.7623 4.80897 23.0373 4.64878 23.3124 4.48858 23.6189 4.34047 23.9568 4.20424 24.2947 4.06812 24.6601 4 25.053 4Z"
              fill="#FFFFFF" fill-rule="evenodd"/>
        <path d="M71.0136 4C71.4091 4 71.7927 4.07292 72.1645 4.21865 72.5362 4.36449 72.8605 4.57506 73.1373 4.85047 73.4141 5.12588 73.6356 5.4539 73.8017 5.83455 73.9678 6.2153 74.0508 6.6324 74.0508 7.08596 74.0508 7.73393 74.0311 8.31303 73.9916 8.82335 73.952 9.33368 73.9164 9.80339 73.8848 10.2327 73.8531 10.6619 73.8413 11.0548 73.8492 11.4112 73.8571 11.7676 73.9085 12.1158 74.0034 12.4561 74.0825 12.7477 74.1814 12.9826 74.3001 13.1607 74.4187 13.3389 74.5295 13.4928 74.6322 13.6224 74.7351 13.752 74.8221 13.8735 74.8933 13.9869 74.9645 14.1003 75 14.238 75 14.4 75 14.6753 74.8735 14.9548 74.6204 15.2383 74.3672 15.5218 74.0469 15.785 73.6594 16.028 73.2718 16.271 72.8486 16.4695 72.3898 16.6234 71.9311 16.7772 71.4961 16.8542 71.0847 16.8542 70.6735 16.8542 70.3215 16.7407 70.0289 16.514 69.7362 16.2872 69.4949 15.9187 69.3051 15.4084 69.1153 14.8981 68.9769 14.2421 68.8899 13.4402 68.8029 12.6383 68.7594 11.6623 68.7594 10.5122 68.7594 9.89651 68.6961 9.47133 68.5695 9.23642 68.443 9.0015 68.2768 8.88405 68.0712 8.88405 67.9289 8.88405 67.7786 8.92869 67.6204 9.01777 67.4622 9.10684 67.3237 9.25672 67.2051 9.46729 67.0864 9.67786 66.9876 9.96943 66.9085 10.342 66.8294 10.7147 66.7899 11.1763 66.7899 11.7271 66.7899 12.0997 66.8136 12.4196 66.8611 12.6869 66.9085 12.9542 66.9639 13.2012 67.0272 13.4281 67.0904 13.6548 67.1458 13.8816 67.1933 14.1083 67.2407 14.3352 67.2645 14.5862 67.2645 14.8617 67.2645 15.1371 67.1655 15.3922 66.9678 15.6271 66.7701 15.862 66.5052 16.0685 66.1729 16.2467 65.8407 16.4249 65.4689 16.5626 65.0577 16.6597 64.6464 16.757 64.2272 16.8056 63.8 16.8056 63.4045 16.8056 63.0882 16.7125 62.8509 16.5261 62.6136 16.3399 62.4278 15.9997 62.2933 15.5056 62.1588 15.0115 62.0718 14.3392 62.0323 13.4888 61.9927 12.6383 61.9729 11.5569 61.9729 10.2448 61.9729 9.72644 61.9096 9.37821 61.7831 9.19996 61.6565 9.02181 61.4826 8.93273 61.2611 8.93273 60.8498 8.93273 60.5452 9.07038 60.3475 9.34579 60.1498 9.6212 60.0508 10.1233 60.0508 10.8523 60.0508 11.0305 60.0707 11.3059 60.1102 11.6784 60.1498 12.0511 60.1893 12.4479 60.2289 12.8692 60.2684 13.2903 60.308 13.7115 60.3475 14.1327 60.3871 14.5538 60.4068 14.8941 60.4068 15.1532 60.4068 15.7202 60.2486 16.1697 59.9322 16.5019 59.6158 16.834 59.0859 17 58.3424 17 57.8837 17 57.417 16.9797 56.9424 16.9392 56.4679 16.8987 56.0407 16.8259 55.661 16.7206 55.2814 16.6152 54.969 16.4654 54.7238 16.271 54.4786 16.0766 54.3559 15.8255 54.3559 15.5177 54.3559 15.1127 54.3995 14.5701 54.4865 13.8897 54.5735 13.2093 54.617 12.3751 54.617 11.3869 54.617 10.8037 54.5853 10.2934 54.5221 9.85601 54.4588 9.41871 54.3876 9.02988 54.3085 8.68974 54.2294 8.34949 54.1582 8.04177 54.095 7.76635 54.0317 7.49094 54 7.2318 54 6.98881 54 6.72955 54.1464 6.44606 54.4391 6.13834 54.7317 5.83051 55.0916 5.54702 55.5187 5.28787 55.9458 5.02862 56.3967 4.81401 56.8712 4.64394 57.3458 4.47386 57.7571 4.38872 58.1051 4.38872 58.3107 4.38872 58.4927 4.46568 58.6509 4.61959 58.8091 4.77351 58.9435 4.94762 59.0543 5.14203 59.165 5.33645 59.2679 5.51056 59.3628 5.66448 59.4576 5.81839 59.5526 5.89535 59.6475 5.89535 59.7266 5.89535 59.8492 5.80617 60.0153 5.62802 60.1814 5.44987 60.4148 5.25141 60.7153 5.03266 61.0159 4.81401 61.3876 4.61152 61.8305 4.42518 62.2735 4.23895 62.8113 4.14573 63.4441 4.14573 64.1243 4.14573 64.6661 4.23895 65.0695 4.42518 65.473 4.61152 65.7894 4.82209 66.0187 5.057 66.2481 5.29191 66.4141 5.50248 66.517 5.68882 66.6198 5.87505 66.7108 5.96816 66.7899 5.96816 66.9007 5.96816 67.0628 5.86697 67.2763 5.66448 67.4899 5.46198 67.7668 5.23515 68.1068 4.98408 68.447 4.73301 68.8543 4.50618 69.3289 4.30369 69.8034 4.10119 70.365 4 71.0136 4Z"
              fill="#FFFFFF" fill-rule="evenodd"/>
        <path d="M34.5454 4C35.3676 4 36.1028 4.11514 36.751 4.34531 37.3993 4.57559 37.9447 4.89219 38.3874 5.29512 38.8301 5.69795 39.17 6.1708 39.4071 6.71348 39.6443 7.25615 39.7628 7.83994 39.7628 8.46495 39.7628 8.97471 39.6008 9.39404 39.2767 9.72295 38.9526 10.0519 38.5455 10.3191 38.0553 10.5247 37.5653 10.7303 37.0396 10.8947 36.4783 11.0181 35.917 11.1414 35.3913 11.2523 34.9012 11.3511 34.4111 11.4497 34.004 11.5525 33.6799 11.6594 33.3557 11.7663 33.1937 11.9102 33.1937 12.0911 33.1937 12.3213 33.3122 12.5352 33.5494 12.7324 33.7865 12.9298 34.2135 13.0285 34.8301 13.0285 35.2254 13.0285 35.589 12.9545 35.9209 12.8064 36.253 12.6585 36.5494 12.494 36.8103 12.3131 37.0711 12.1322 37.3083 11.9678 37.5218 11.8197 37.7352 11.6718 37.921 11.5978 38.0791 11.5978 38.2688 11.6142 38.4744 11.7046 38.6956 11.869 38.917 12.0335 39.1265 12.235 39.3241 12.4734 39.5217 12.7119 39.6838 12.9668 39.8104 13.2382 39.9368 13.5095 40 13.7686 40 14.0152 40 14.2783 39.8578 14.5825 39.5732 14.9279 39.2885 15.2732 38.8973 15.598 38.3993 15.9024 37.9012 16.2065 37.3122 16.4655 36.6324 16.6793 35.9526 16.8932 35.2174 17 34.4268 17 33.5415 17 32.7075 16.8562 31.9249 16.5684 31.1423 16.2806 30.4585 15.8653 29.8735 15.3226 29.2885 14.7799 28.83 14.1221 28.498 13.3491 28.166 12.5763 28 11.7046 28 10.7344 28 9.74766 28.166 8.84317 28.498 8.0209 28.83 7.19864 29.2885 6.48741 29.8735 5.88711 30.4585 5.28681 31.1502 4.82227 31.9486 4.49336 32.747 4.16445 33.6127 4 34.5454 4ZM34.7352 7.28086C34.4664 7.28086 34.2016 7.32198 33.9407 7.4042 33.6799 7.48643 33.4467 7.59326 33.2411 7.72491 33.0356 7.85645 32.8735 8.0086 32.7549 8.18125 32.6364 8.35391 32.5771 8.52246 32.5771 8.68691 32.5771 8.76914 32.6087 8.85137 32.6719 8.93359 32.7352 9.01582 32.83 9.05693 32.9565 9.05693 33.1779 9.05693 33.4427 9.01582 33.751 8.93359 34.0593 8.85137 34.3518 8.75684 34.6285 8.6499 34.9052 8.54307 35.1383 8.42383 35.3281 8.29218 35.5178 8.16064 35.6126 8.0455 35.6126 7.94688 35.6126 7.76602 35.5336 7.60977 35.3755 7.47823 35.2174 7.34658 35.004 7.28086 34.7352 7.28086Z"
              fill="#FFFFFF" fill-rule="evenodd"/>
        <path d="M81.5454 4C82.3676 4 83.1028 4.11514 83.751 4.34531 84.3993 4.57559 84.9447 4.89219 85.3874 5.29512 85.8301 5.69795 86.17 6.1708 86.4071 6.71348 86.6443 7.25615 86.7628 7.83994 86.7628 8.46495 86.7628 8.97471 86.6008 9.39404 86.2767 9.72295 85.9526 10.0519 85.5455 10.3191 85.0553 10.5247 84.5653 10.7303 84.0395 10.8947 83.4783 11.0181 82.917 11.1414 82.3913 11.2523 81.9012 11.3511 81.4111 11.4497 81.004 11.5525 80.6799 11.6594 80.3557 11.7663 80.1937 11.9102 80.1937 12.0911 80.1937 12.3213 80.3122 12.5352 80.5494 12.7324 80.7866 12.9298 81.2134 13.0285 81.8301 13.0285 82.2254 13.0285 82.589 12.9545 82.9209 12.8064 83.253 12.6585 83.5494 12.494 83.8103 12.3131 84.0711 12.1322 84.3083 11.9678 84.5218 11.8197 84.7352 11.6718 84.921 11.5978 85.0791 11.5978 85.2688 11.6142 85.4744 11.7046 85.6956 11.869 85.917 12.0335 86.1265 12.235 86.3241 12.4734 86.5217 12.7119 86.6838 12.9668 86.8104 13.2382 86.9368 13.5095 87 13.7686 87 14.0152 87 14.2783 86.8578 14.5825 86.5732 14.9279 86.2885 15.2732 85.8973 15.598 85.3993 15.9024 84.9012 16.2065 84.3122 16.4655 83.6324 16.6793 82.9526 16.8932 82.2175 17 81.4268 17 80.5415 17 79.7075 16.8562 78.9249 16.5684 78.1423 16.2806 77.4585 15.8653 76.8735 15.3226 76.2886 14.7799 75.83 14.1221 75.498 13.3491 75.166 12.5763 75 11.7046 75 10.7344 75 9.74766 75.166 8.84317 75.498 8.0209 75.83 7.19864 76.2886 6.48741 76.8735 5.88711 77.4585 5.28681 78.1502 4.82227 78.9486 4.49336 79.747 4.16445 80.6127 4 81.5454 4ZM81.7352 7.28086C81.4664 7.28086 81.2016 7.32198 80.9407 7.4042 80.6799 7.48643 80.4467 7.59326 80.2411 7.72491 80.0356 7.85645 79.8735 8.0086 79.7549 8.18125 79.6364 8.35391 79.5771 8.52246 79.5771 8.68691 79.5771 8.76914 79.6087 8.85137 79.6719 8.93359 79.7352 9.01582 79.83 9.05693 79.9565 9.05693 80.1779 9.05693 80.4427 9.01582 80.751 8.93359 81.0593 8.85137 81.3518 8.75684 81.6285 8.6499 81.9052 8.54307 82.1383 8.42383 82.3281 8.29218 82.5178 8.16064 82.6126 8.0455 82.6126 7.94688 82.6126 7.76602 82.5336 7.60977 82.3755 7.47823 82.2175 7.34658 82.004 7.28086 81.7352 7.28086Z"
              fill="#FFFFFF" fill-rule="evenodd"/>
    </g>
</svg>